<mxfile host="Electron" modified="2023-11-06T09:59:06.543Z" agent="Mozilla/5.0 (Windows NT 10.0; Win64; x64) AppleWebKit/537.36 (KHTML, like Gecko) draw.io/21.8.2 Chrome/114.0.5735.289 Electron/25.8.1 Safari/537.36" etag="0XaFxfC3GT0OZgRR9RiG" version="21.8.2" type="device">
  <diagram name="Seite-1" id="5zQS0J8gBVhOqoGNaELO">
    <mxGraphModel dx="2390" dy="1407" grid="1" gridSize="10" guides="1" tooltips="1" connect="1" arrows="1" fold="1" page="1" pageScale="1" pageWidth="827" pageHeight="1169" math="0" shadow="0">
      <root>
        <mxCell id="0" />
        <mxCell id="1" parent="0" />
        <mxCell id="Nm489pgh-CyMTp9Xrosg-12" value="" style="rounded=0;whiteSpace=wrap;html=1;fillColor=#FFFFFF;strokeColor=none;" vertex="1" parent="1">
          <mxGeometry x="60" y="110" width="1520" height="550" as="geometry" />
        </mxCell>
        <mxCell id="Nm489pgh-CyMTp9Xrosg-1" value="" style="shape=image;aspect=fixed;image=data:image/PNG,iVBORw0KGgoAAAANSUhEUgAABdwAAAH1CAYAAADs2TyJAAAAAXNSR0IArs4c6QAAAARnQU1BAACxjwv8YQUAAAAJcEhZcwAADsMAAA7DAcdvqGQAAFNiSURBVHhe7d0LlCdXfR/4GkvYiQeMxU4SkGI7WcRjTOK1LIF4OIIRYFALQY4x2DyUHNvZkJjNsWPNCGk0mukRaASake2cXRs72TibYB4G7BgkNS9ZA4p5C4/jGA96JSfxDsROr2SMZ70JoNm61ffffav63z39qP//X1X38zln5v+r1rQ06luPW99769aOM6Vignbs2FFM+D8BAMCEHDlypNi/f3/cAgCgT/TlYPq+JX4CAAAAAADbIHAHAAAAAIAWCNwBAAAAAKAFAncAAAAAAGiBwB0AAAAAAFogcAcAAAAAgBYI3AEAAAAAoAUCdwAAAAAAaIHAHQAAAAAAWiBwBwAAAACAFgjcAQAAAACgBQJ3AAAAAABogcAdAAAAAABaIHAHAAAAAIAWCNwBAAAAAKAFAncAAAAAAGiBwB0AAAAAAFogcAcAAAAAgBYI3AEAAAAAoAUCdwAAAAAAaIHAHQAAAAAAWiBwBwAAAACAFgjcAQAAAACgBQJ3AAAAAABogcAdAAAAAABaIHAHAAAAAIAWCNwBAAAAAKAFAncAAAAAAGiBwB0AAAAAAFogcAcAAAAAgBYI3AEAAAAAoAUCdwAAAAAAaIHAHQAAAAAAWiBwB4BM7Tha/ppfLK58V/wCAAAAsC0CdwDI0LET5W+nF6t64f6lT2CYRoNrAADA5AncAYClAB4YnHRwTegOAACTJ3AHAIrjJ2MBAAAAbJnAHQAytO+uWERPPDcWDF6Y5Rx+eaohD83BNO9sAACAyRK4AwDFr/7nWDBoYS3vkbkLY8GgLZyKRbRndyyAwRkNqL7l0/ELAMBMCNwBADL0jF+OBVmxfBQMU/rU0o0f8b4GAJglgTsAsPxSRQYubWdtnqXmjHeGazTbGQCA6RK4A0COhK3ZsWZ7phzrWUqXj3Ls52Hfb8ci8r4GAJgdgTsAFTPhMvXtu2IhlMmRNs+QAD4PSTtbRigTZ+JndOdrYwEMzui+zcAadJfAHYAaHbfM7IifwLDt+EuxIDeWEcqT/lwewsC5STN5SSdLLNyv3aGrBO4A1B49d2M+fGvNajYLctjGta82H7basf7tj40FQ7fqHO+phjw02ll/Lg/77opFySBLHvTdoB8E7gDUuTGHQbr8abEgT8m5fa1BNwB6Rr89O83BNNd06CaBOwA66xk7+qJYlP7aObFgkP7sv8Ui8dy/EQsGb+6pK+9rMDsuPwKZDOnbZcdTDTBcf3Ta8lF9I3AHYBU35nn6VycXtf2A3fQfYpE48MlYkJU9u2PBIBlQgTys6rMZZMlDo52d8/Pw3b8Ui5L7tX4QuANkzgU7P82OeTrzdd8H3KzBEKUhu5vz/GjzYav15c7xvgaAwUkGWlzT+0HgDsAqLuLD1pzdeudrYxF56VYGdsZBFrPhBm3VuTy2+8L9i47zAVsYc1h7qiEjf+kvxcKkiqHTXyewlNDwOZf3k8AdADLzF38ei8SZ+ZVZ7ufsiAXDtHNXMXdBrMnKmX2xKIXQnYH67/Ezceo/xYLBS8/vAtn8COaGTfsS6MP1g8AdgFWe8m2xYJAOfiYWpb0XxaI0Wlrm9vsWix1Hq5IhSWazp7Nd3bwN1/d/RyxKo2M9XULKLPd8/MJDsWCQ1grWm0+wMSxmNlPxtOLgGTztJ4E7AKv8s/8YC7JSuzEvO++C2OFKO+7W7R+uI2Nu0NLjPIQ1jvMBC0sIjZaPIhvpgKrB8/wI5jKyy/kdukzgDpC5Wsfcus7ZS5eWEcQOl3X787Y8y7081zvOB2jcNdx1PRvV0yxJf875PS8veGosGL6/iJ8lg+fDNu5pFm3efQJ3gMx5HDVja8x8TJec0JkbnmuftvRZDa7EfcBakHmpBlyS4//RR2PB4Bx+ViwYtIUvxyLyvobMJOfzj98fCwbJEwzQHwJ3AJZ5kSJBOvvZ7NdhSAdO/iB5ae7b9sSidPR3Y8HwjBlcSwO5c25ynA/VZ5NB9R3z2nmwzsTPhPc15MlEmny4b4NuE7gDsCwNWt2cDdgGlhZIb9Rf/u5YMDjXXhKL0rUfXCzmPxY3GIazHOtHX7FynHuaZXiue/rq5aP23xELBi9t+zDLXb9ugNJz/Ghg1fJR2ahNkLkrFgxbMoHC0w7dJ3AHYEljBqRHkPNWdeLjPnH7fW7UhyR9oV6Qrtt/+JOO+5xUaz1H4WkWoXv/pW143hOXPtNj/JZ7HeOD1ujLpYPn+nXQf6ueYEgGWvTVB8xAWi8J3AFy17yAJzdrO47GgmF6bPxcgzVg85HOdGaAvi1+jpG2vSWkhuUTD8SidO0PrLSzgZV8hMHz9Bi/+dOxYHDS5UUc4/nQV8+X5aO6T+AOQE3ouC3PiDKaPmhzj4/FOl6/e+VG/fDHY0HvnO2x03Sms3Weh+fIOi/ODG3vRcnDlD7Nkr67wdMMA7ROfy09vx/4iPP7UKTHcAjb0+Pd4GleXMMzkzzVQLcJ3AFYJV0T0Cz3YdlsR/wdPxqL0vzHhTRDls6CfP17YkFvpcfq7/zHWKyhtg6sMHaQQhunS8sI5PKStr1lJ4YnhO3VwMrjtHM2kieSm9fwa38rbjA4YXDNy3L7Q+AOQGXNi/dpawLmLg1ivaCnn561gc55dbMeb+De+SWha24c58NwtrZL29kxnifLTgzP6Lg/c035W7yOa+e8pINqR39P2w/JetdqE+O6TeAOkLH1LuDVTXnSaXdjPjzNl2euJV1ywr7QT/Ofi0UpXV6g6eiLYlEyA3Y4NnKsN49zhik9/h3jw5Bekw8/OxZjpIMtQpphSc/x6XXcEnEDtM4yIunSMiZLDVM41tMnGkyM6zaBOzBW6KD9u6/EDbIUbsrTF/GY8Zi39GbOvjBcaega3HpvLMhCbTkxQc1g3fRiocxQffs6L0Ovnd9PGzwfqmpQLVluxDGej/QabuB82NIBVC9P7S6BO7DK6Cb7sl9xoc7J2WZAho6bTnv/bTUsT2dFLjwcCwYpvWF70x2LxQ3f/L64RZ9s9VhPB1wEcv2z8CexKKXn7dSNz4tFyVNLw3K247651jP9tV5bhwkz6RNLjvHhWWsp0PQa7kmW4WoOoB41QaaTBO5ATbNDJmClNoJutkTvbWRpibNaNPjSW8mst/Wkx33xqLcz5cTTLD339fh5Fukxvu+uWNB7G7nGp23vWp4H5/Jh2MjASRhUS4NYx3j/beT4vfYObd1FAneAjG3kAh5G0H/yGSs3Z48+Ggt66S/+PBaltWY/ruXgpSv7gScehq02c+bMd5kd10PPOj8Wpc0c6+mfNcg6XLVj3PIiWUnb3uznYRh3jk+DV+08POsNrllaJg+hnU2M6zaBO1DT7LBZE2zYNjrb+f98VSxK59zkYt5nBz8Tiy04fEVR3PisesfODVxPnN78cVtbesAM2N6Z/91YbEXyJIRH0ntqA0+z1I5xy4v01lZmL2v7/lv4b7FYR9rP18558SRLHkJ2c+SlK23tvqxbBO5AjQtyXjZzk6bjRnDTXPlbEuS4geuZHfFzo0ZtvYXAnhn7ZvzcgvSF2R5JHzbX9nwtP+FQEtL00P+In+sIYdwtV2rnHDWfZHnk0ZX9gP4a9zTL9c+ORcl9WbcI3IGaVTPahSyDlrb3uAt4qtlx02nPV/oyrmDfv40F3fdX4+cGrfVSLoav+Ziyc35PbLLf5to+LGfry6W8ryEP1z0zFiVhXF7SJ1mOfeOHY0XfbGTFgVuuWOmzvf49sWDmBO4AbJhHkAdkgy/PXEutE//vhTRdlrbN3Lmx2KA0kNkx75jvpS0e62kQGzjnD5fgtd+2uvxjGs6HwRZ6agPn+DPzK3/GMmH9tZXzc9r2nmIarusujUXpnV9yX9YVAncANiUNYP7R+2JBf7T41Eo6A9Ya38PUnC3pZq1HWjjWw8Dah/9XN+u9dF783ADBK4Egtmc2eY7/ie+N5/Ly+4RxeXJ+HzaTJLpH4A7UjTpv25z9Ss9sor3Tmc2/8kUX85zVZsCW5475jyyVDMvN3/rPY7V0s+ZGPS8vCcsKxWuE9u+2tG2OXhyLDUpv1MlHOvtVEDts//LVsSgJ4/qvOSFiPen53THeY2e5Xw/36D/9t1f+jEkSsydwB8ZLZk04WdPkxpyRdADm8KfdwHVdunTEZqShjBv1/KQvUdX+/bDZpQfSc7mZzj21xckytafVHN+DZnmRftvq8lFp3+9Z3s3TP0kucza/8MpYlDzRMHsCd2A8M9zzsIkLeCq9Mb/wHbGgV9p8GWZ6sx7W+TZ7ZpjSgTbruffHjc+IxTYdvSppf4HssJV9g5/5jVjTfVvsy42EmbJv/iHn977aan9uq+Et/ZPOhn/+L+mnD116X2ZgbbYE7sBYaefN6ChNaUftoYcWXcx7YlId7NrSMiUz5LqlrZcghoG2tJ3v+7NY0Dnpsf6FP43FNu29OGn/04vFzZ9eKummrTzNks5+/Wf/QSiTkwPPLYqTPyOk6Yv02NzztFhs1GhS1TYHauiZHX8UC/30oUvvy+Q4syVwB5Y1b6zMZmQt4UL+1etX9g8Xc0IYO/8CN+tDlz7d8vSfE8jlJm3/Ax9x3h+i5vJRjvF8PP07y9+8r6F/NpnoHEre76Cv1lNbeBL95sd8qPZ92r5/NvM0Szrorq1nR+AOrCm9sQ6crIclvZHayuOo3/FtjaVELDHQK1tdy3s9h15Q/pberH+hKpmxS787FqX0seKtqq33e1cs6Ky2j/XmElJ0R1tPs3hiqZ+OPD8W23D0RbEoafth+vx/jUXJhJme2eZTCen7WELbu7fvvq0OfKb9fctHzY7AHRhrdIOe3lhDU20pkbITeO1vLZXkq3azfrsZcl1wqOWlP5rH/Zs/uVSSh9D+BluHrbl8lPN4PzzmMbHYhtr5vSSQG55wfKdPshg4zUva9p5k6b40ON/0BArLR82cwB1YV3qSDxdlnTKa0ichjv6ejluXtTX7cT3Nm3Uz5IYpPe4Pfkwbd82kj/VwnF/1tJUbubd+dqmkO9L+21akx7jzeHelfa4239dRPHbp+Pa0Wje10davHJ3DSwZO81Lrp3tSsdO2c1+dPsEuw5kNgTuwbK3OW3OWu0B1eLa75ICOWz9MYhmZccLN+uHL3cgNnaVF8vbB18SidP2HDLZ2wcKfxKIlnmTolzav8Wf2xqJUPa0mdB+c94dzeDID1tMM/bGVpUBToZ++POCi7QcrHTgPtPP0CdyBZWlHPZ0ZFermS7QgFS7oy6F72XGbv3uppFtO/2ksStud/Xg2By8rf4sz5MI+8Q/et1QyQ1t4ydZ6wj6UDrYJ5PKTBrL6Bh3w9fjZktoxXp7Hha55qR3ftzu+h6ha0/tvLLWz5UW6LW2bNgbXqgGXyJMs3bXdp1mqDCd5v5bQfboE7sCy9IQ+rsOVBis33BELiNJR9MP3uKB30fy9sZiSdIbcv/ziYnGbzvzgNAfb3LB1w/c/PhalSQ6uhX+3Jx2GLb22ey9H97S1jMw4q45vg6qdkb4Ecbvn+KP/SyxKk9yf6B6DanlovixXX316BO7AWOM6b+lN15F73XT13ZlvxqJF6aBMuKBD2pnfqzM/G6cn+3MXyHXPkT+MxRSE/sKRlwrlOqXlp1lqoYwnGbJS3Q8kT6uZTDE8oY1H7+QQxuUltP1bXrJyfnd8d9u4fGajaqsVuB+bGoE7sCydLbEWN13D8fH7Y1HazgU8FYK3wy9a2UcEL4R9q7bsyLxAdohcG/J2/bPrTzq4aR+WNJALtG83tdWXa0qfVqsCWdfwwUnfySGMy8sNzyl/S16S7PzeLRvJZzYqDd2183QI3IFNaYZnTtb91eYFPHXwB8vfkpcwzX90qaRDWp79eDZhIEYg2wHnxc8JaAZyBtvyUz3pkKwTKpSbgQk+zVIFckkoo327YeG/xmLCXMM7qsX+XNrGruHdM8nlfpqDagxfdR33NMvECdyBTWveVENTulbc4U+5MWcpkK3dzFnreSrSY2/u22MxIWkgF4K/N/+7pZIZmvLg2tEXxaIUQjnn/mFJQxmha0dMYHnAcVZdwwWyg1MbOPekUnbS2c/66MN1Wzp46mmWiRO4A6tt4AY9vam2RATjNGdD2Uc6YIKzHzci3MwdeJYO/ZClgdzB39a+MzOjY70Zyjn3D4+B03yF49vSUR0xoXO8J1n6IRyLk3Bj0kd3fHdMSxMofrbRT9POkyVwB1ZsovNW63SX9t0VC/pnQjMgwz5y68vsI9S9ea5+7jBLbniagZwb9rys6h+YCT0V6XF2OKzJOyGhfa+7eKV93ax3xJSeZrF01PB5kqWbJrUUaOqmso/u+O6YCQyuVQM21u2fCoE7sGWh022mS49NaHZMat8l9X3k+tuXSmbs3Pg5I+kNe9gvfuTdSyWTtWd3LCZM4Eo4xm964co+YGBtuj77X2IxIbdcVf4mlOmGKfTlmtJlAz3FMky1gXPn76w4vvPgZdjTIXAHtmVaAQ79VYWr0Vu/4II+K+nPfe6vxWKGqg59DGx+477F4uBCVTIQtQHZkgHZ2bjxGbGYgRv/Tn3AVWgzLM1QhrxYOmp2av25C2LRsjBwbj33fKXruTu/D1dtPXftPBECd2CVzXTeqkeSojA6Sg+dEz8nyI0Z46Tvgnjz5xaLt34+btCa4ydjMQPpkwxmz0xP+nP+wp/GYkaaT7MI3adjWpMhmstHkY/Q/2/27Zi+SR7r1XrukWt4h4yuqRPmKYdumcTgWljP/aYXr7SzgbX2CdyByrY6UcmF34m6f+aeGIsJGrfEhI47zRv26++0X7TtBU+NxYx4NJn0aZYQuv/Ery+V9F/z2i6UmZ1JzXRej/afvUkPqjdnOruGz9CUl4+qHd/lf/vvv3epZHqmcbzd+Lzyt2RyjCynXQJ3YNvSQMWJuh9m0WEOMx1rs6G8RHVmurQU1LjBGNrz3/7vWJTCz3oWDLbNTleO9fRpln91stwHvhA3aM2snmapLR9l6YmpSs+lszrWm+0vdJ+uabS7JxnyVT2lFv2bP9R/m7a03z7JY72Z5Wjn9gjcgVakMyCE7qylOVvCfkLQHIyxNEF7jj4QixlaNdgmdM9OOPfX9oHb7QNDkoYybtZnoyvLh+nbDU9zYoT2zYunHGZnmj9r6/ZPhsAdWGWrI6hpZ0zo3h/TnhWV3piF/eTw8apkwmZ5M74RzUAuhO469cMR2vctL0k6855wmZiuHuurQnc37hMTftbT1mxb8rJqhqSnWCZmFuf4Zt/dPd7szGL5KNfuPNTuwzyt1AqBO9Ca0Bl74GdXTtShQwbjpDdm85/QcZuGdGBlFmHMRowL5GjJaPbhDN3wHEsP5C4c4+ngvBv39iz8cSxmpHn+9qTSdE178sQ4teu3p1gGx7ITszPrn7X++WxMe3Ct1kcr++nX/tZSydYJ3IFWXfgdRfGm71+5IJsB0U1dmAHZDF2YrNN/GouOGxfauKkbDksPEPYBN+4T8I34OUPNARWhe17GhXKu35MVfubTpH1nb1aDa6vO7yZNDFLVT4+O/p5jfLsE7kClzQD2rX83FiUzILqpCzOhmqGLYHWy5u+NRQ+4aW/R6e4FXtUsueTR9IMLVUlLFv4iFqVphzEb1TzGBbPDEa7tQpnp6OLyUa7fk7dwKhYzMK59yUdz0oTz+/RMsz9n3f72CNyBVdo4oZu93G3pTdo0L+BN4b/tos444/YNhiN9NP3NnyuPe+v9tufh+Nlx4RgXuk9AB5aPaoYynmTJS/PY1rcbltC+BtXylU6acH6frFkOrhlYa4fAHai0fUIfN3uZ7pjlBXwcF3XW4jzSknPiZ4fUjvvbtW2OhO4t6tjTLM31nt/yqbjBRIRjqUuaoazQfVjMdJ6urj3N0jy/C92Hp3kO18ZbI3AHJiacqA89J7mR1hljDWFf+aln2FemogOzHzcj7BvpTHeB3Mal4cbcE2PRIaFtm2GrQKZFPTnWw37wX/bZD4YoPb5v/Kh2bdusX5R7Ns3lhYTuLZvxOd5M57yl53dLyA5TOrAW2nj+rqpkEwTuwETNv6T8LemM/eP3L5XQ9IuvSm7MzJZpX8dmP25WM3TXsR+GELY2Axm2qYfH+nftLIoTP2M/GJrmoJrAtWUdeFHu2YwL3RkOM53z5fw+RTMcXEuP8cO/4xjfLIE7UDeBE3p6ov7lP9DR7pQZXsDHaT6i6qJOynr/wxSO++ZMd/Lz/d9pYG2r0p/TTc+NRUcYVCOc4w9e6hzfmo4NqprpPHnpUqDhnNoVQvc8OMa3TuAOLJlw560ZpjhRs5bmbJl/9L64QTvOjZ89JXTfmj27Y9FR4abN0kEEbt635zP/ORYd0pzl7PhuWccmT4xz+Iqi+Invre8Dju1hELpOwY742UHjBlW1f0s6MrjmGN86gTswFU7UHdPxJQfSfeVXvmjNuDbN/bVY9FgzdJ//WNyg9770syttK5TbnoN/KxY9E/oLf3aD/sLQhND90A86vlvV8b5c0798dVG86umO7SFynzdhZ+JnRzUHVbX/8DjGt0bgDtRNcAR93IkaxmnuK2HNuLd8Om6waUPsEKWh++FPLhavf0/cYNnxk7Hokad9R1G87ydW2lYotznpsX7vI7Hoocc9xtMsW9Xlp1nmX9SY6e5dLdl5748VxVVPc2xvVfqzmrsgFh0R+u5C1wnr8NMs1aDqc+rtz7DIcjZP4A7UzJ0fiwlpdsbcbLGWsK+kgcuNH3FRpy7dP975JS/aHYof+e6iOPjs5DohdM9WM3R/2xfiBjV9GlwLoUz6rhbn7fx88DVFceiy+rEtmN28Lg6umemct/mXrO6/af/t69LgmixncwTuwNQvhG62Zitt767NjhknDVwEb9vX9bW8NyvdP5xP6n7wf45FKXSQ++TwS4vi5ivctG3HUI719Bi/7vbF4vDH4wa9Vb2rRT+wNX3oyzXNX14UR+ZWjm3B7HCE+7zrL6m3LdvUo+WjQv+tOejC5nX5fFgbWHMNX9dy4P7QQw8Vb3jDG4odO3YUBw4cKB55ZO3nUI8ePVrMz8/HrfKCWdbh+8Kv8M8AzsbNFpuRPr4mdKepCuScT1bZ/+9i0VP7L62HrW7a8pXuB/Mfd4wPgX7g9qRhTF8H165/1urlCYTuw3DkZeU1/Jkrbev4zkvzSYfQ/o7trevq0yyu4We3HLi/4x3vKC688MLi4YcfrrYXFhaqz6YQrl977bVxqyje+c53Fl/5yleKBx98sPrer371q9XXAM7GzRYb1VxexmzXzenjWt6btep8YmBmMB45UD/2WduQj/X0GqDPULfw9ViU+vQ0i35gO/p83If9Vei+cX1q65uvNAs2Z81A1qSJrevqdb15Db/+9qWSFVXgHma3h9D8/PPPL84777zi8Y9/fPHAAw9UfyAVZq8/5SlPKQ4dOhS/UhRf/vKXiyc96UnFk5/85Op7zz333OprQD9NewS1eaL+p7+5VDIdfZsV1bwpm/9I3GBdQ1la4mxq55OScHYYvvPc8ti/SrsSrwEC2tX+JH72kNB9+/p+jQ9hUnMJCqH7MJgF266+LR81rl/u2N68Lv/MqjaO3vqFxeLKd8UNKjvOlELg/va3v72Ym5srLr/88ipYDzPVr7nmmipEbxotJxM+w2z2e+65p5r1/oQnPKG47bbbqtB99GfCMjNteOMb31gNCADte+TRXcWxb/xwVe899zeL875l+mHGDf/jH8aqKH783NuLC7/lK3GLtnWhvbcr3V+uPvfO4unfcipuMc7nHv2u4gPfuKKqb/7Wf159DtmpR/9q8Uvf+LtxK4//53Fu+HrZ5me+q+yM/VFx82M+FL+6eaFPGCZjdEF67Ofaruv5nUe/u/jQN15a1UP++Szv21Hu+0L68+jrz6LWpts8Z+VgCH25cdJz/D8s7we+x/1AzQ3f/L6i+Oazq7pP7e743rr0WC/O+Uxx8zm/v1Rv0iz7cul+GwzpnDUpfTvW03O39l2x7cB99Hn48OHiqquuKn7gB35g+WtBCNzL/0RVA90URk1Hj3mF2WOzeGwp/TsEt1y5q7jumXGDVoWR54X7Z9vebUhnuc7v2VUcen7cYJVqRtHppZ9XbVmGAWueU8IM6b0Xx41MLLf7zl21GSibdeTIkWL//v1xa/bSY7/P57BJ2HGs/O3P8zjW0//XIOd9YSjn+PT/Y7vnraEbSl+uqXntvu7iXcUtV8UNen2sO763pq379Fn35dJzVqD/tr6+neNlOeMtr+H+ta99rVpWZiTMUh8Xto8TwvUQqn/wgx+stnfu3Fl9Av3QhfUAw0Uk7Thef6flQiZlKMuLpPvL/PHF4pD9hUQ4p4QO6si+2xeLvf82buRidGM7MOmxHzr3oZNPlNEclzN7Vy9Dkb3k0f0+qi0/UJ6/qoCOrDSv3WGJAvvBMDi+8xaWF/rx3fVrtv7bxvRhYKJ57g5ZjuVlYuAe1l8P67CHtdcfeeSRanZ7WKt9I8KSMgcOHKi+7+67765C+4svzmwKGQzIrE/oaZBy+NOLxfzH4gatSQdY+nABX0+6v9xU7i//+P1xA0rNzt9t/768wQuzYum9Zug+f3fcICvhBv7mK1b2hWzXhx3Q4NqqUM47G86q7325pua1Wzg7HEL3vP3qj3pfw0Yt9HC11Oa5O8zQz719l2e4X3311cWDDz5YrcMeZre/7nWvq74eZq+HUH0t4c+FPx++74UvfGFx2WWXVcvSAP3RtRN6LXT/5GJx0DJ/rerjBXw96f7yy39gNH1dPZ/9uBWh85fuI2EJiuxu8B4bPwemdq24Z7G44Y64QVbH+v5L6/tCuIE/8tm4QS/VQrmS0H21ofXlmpaDG+HseD0+xzdDd/329XXhSfQ2hYHyn/m+lf1X6D4szdA99/ZdDtzDLPdf+ZVfqZaGGa2/HoR6FL6PhK81/0z4vvCr+WcBtiK9eX7zZxeLgwtxA8ZI95cwmq7z3lDe0OSu2kfSG/eMApy5brzvdCLSY//IvYvFq98TN8hOeoN3w4cWizctrXRJT4VQLp0JKXTPTzVgPuaJh6zDuYH056p2jUK/3WBKXn7+h8v7+x9aOb8L3YdF6L5iOXAH6Jpa6P65xeLl744bMEYzdNd5pymnWZM5dWzTY/99X8r82M94cK35NMutv5vfvjB3QSwGIsyEFLqfRY9nOm9U89otnBuGNJCrBlP0288qXOeG4sBzhbIb0tNzvNB9icAdWNHBE3p683z7fTpjrRrgTVq6v+i8M064cf/pv72yn2Q/W24gqmN/dE5z7Gctt30hPX8978mxGJAQuv/UM+rnbPITrt2vfNrKfiCc67/lQVLX7nUNefkooew6yuOh77SvwB0IOn5CF6K2bAAX8PXovK9taLMft+oXXrm6A3jbF+LGAO3ZHYuBq82CDMd+zsHct8XPTI3bF44N+Bgf+eRDsRiYX3xVUey/ZOWcbaC0NPC+3Djvf01R3Pqy+rU7h+N6nCH151adr/XbsyKUHbbQvjm/KFfgDvSCEJXN0HlfodM6XrODv/f2xeKGO+MGvVUd+49dadecQvf0WD/6vFhkrLkv7CuPcefD/rr5ZUVx8NlJewplsrTvknhPEIXj+uZPxY2BS/f3oQ2k67fnTeg+bOFJtVzbV+AO9IbOGJuxan/xGDoNzQ7+kc8P57xy/GQsMnRm7+rZsLk5fl8sMhf2hZuvyOcmb+hPsxx+aVHccmU+7cna0mv3gY+W1+5jcYPecp93FqOfzUCNnQmd6RMs6XVtKE+z5DrTXeAOLOvDCV1nrD05LC9S219KuYfuuSwtshmhAzhu2aq+dwKf/5RYZCrMhj12lWOfoth/6eqZVVf/etygd657Zv2cnXMoExx5fiwys+ra/efuCYbAfd4Y5c8hF80XZYcnWG69N27Qe6vaN4PQXeAOmevjSW5cZyyHEdI25PhzCvvL4ctXLu6CN8ZpLlvV907gmz4Zi1IIJnJ0zcX1oDUc+7kEcwbX6prh3K+dHE6Qk+vTLLVBlNsXiyOfjRuZecxjYpGp6rgeLR0V7gn08Xpv1X1euHa7z8tGc/mRN92xWFz5rriRoaH153JbXkbgDvRSszOWwwgpW3fwsnxnu+a8tMhm1c4rpXBe6a2vx8/MhaC1Gcz9yLvjBtmpzYiNA/b0U3MQ5YYP5dOeaX/XNb7cD/aWvzXe3THEe4Kc2npQ/TE2rdl3W7jf9XpIVvXNy+N7qIMqAndgWd9GUHXGtie3GZDjZrse+XTcgCicVw49r76f9PrGPTlH5qrZsf+N+4Z54yZ425jm0yxDGoAN+3puch9E8TTLkhC63/DMlX3BRJz+C/2xdPmJnCbLjKT7cA5Lgaaafbeczu859OfGDaoMMXQXuAO9Fjpjr3p6vTOmg81amhf3Gz5Sdt4G/qKt5/7NWLBh8y+u7yfhxv2me+JGX5Q3JqwIx77ZzYw0B+z7HOQsfDkWGavO1wMdRGHj3nJlUXzip+rXbvcE/RaWnzj0nGGcq7crx8G15fu2dNkofbfByCF0F7hD5oYwgvreHyuKW19W72AznhmQqy/uQ3/R1qf+UyxK4f+djWnuJ4fu1skfgip0t94vpRC6H7x05Rjv7YD9mfiZsXC+HjeIMtR3NujLre2yv1q/dod7gn/6m3FjQHLqz82/pChevzuPY3s9ufbhq/N7umyUvtugNO+3hrZ8kMAdMpeOlvf5Qr7vkvrJ2oV4PI8eL1m+uKcz4sqL+xBnQi2cigWb1uwE9mU/Sf9+B78vFiwbt97vECw8EotSn6/n03T4itXh3PzdcaNvkrA5VyF0f8Mzkva83QznHIXzX/pE0y/8/jACnJz7c+/40aK46mmNYzuz0D33c1ku72oI0mM9h/7cWvdbQyBwh8yls2T6ftFqnqzDhfhwX2+cJyRt79wDmeqGLJ0RV17cq8ePM5w1w9qWzyuN/aQv7v1/YkFNuHE7fHn9etF7/2/8ZFOafYfD9/TsRq88J7Hil19VtuGelfasrutC9yytel/DQCdW5OKDrymKv/e9ybGdQejuaZa60HerDbw4vw/Gcl9sYMsHCdyBZUMIYJs3zvN9u3GeMLOdV2s+hh468JAK55VxyxX0gada1nbwsqI4dlW9TW/2IuUsVcf4mDX+3cj308Hn1/uCQw5lhtB3n6RxEyvor3/96saxXfbZb703bpCFMPBy3cV5nN9zU/XFmssHhb5YjwfWBO6QuSEGsGvdOMNawg3Zm1+yss8M8jHFJCxma8J+0gxoD9weNzrEjKiNu+bi+s37gY8sFj/y7rjRV471LWvOiBXO9VfoC97WCN0PH48bPbfwx7FgQ6rQ/a+s7Au97+Nlfo5v3ue96Q6Ba25uuSqTQdVMj/Vm6N7np1kE7sBgeZSUzTjwnNWdt0Eo933a0wxob/5C9wb0FpImN/vx7MLPKG3T37ivp9cLx3orqnCuJ+vEpn+v/+9nY8Gyn20Ec/OfWCyu+6240WffiJ9s2Jk3ru7j3fQ7caMvnONr0mM7tOfQJ1fpz9U1+25hHzj4obhB7zXX7K9C9x7mOAJ3YNA8SrqGzGfHrKXZeQtBy3v+U9yAqLmfjAb0OuO/x082LLTpuNnNBmnzFG70jiZPs4R9Yf4jcaOj/vffjwWrpMHc235v+MEc4y2f56NDdy0WNy7EDXqp032xFlgKdH3hmJ576so+8ObPDmQfMLhWCX2x/ZfU+2J965cL3IElAw5ga6F7aZDLhWyUC/hZNcPU1/zrxeKa34wbffat8ZNWjAtow7mlUwysbVrzetHHQdpD5b7J9u1tPM1y+NOC2j5Lg9bBBHPO8VuS7gtv+Zzjus/G9sW0Z1bufK19YMhufln564qVc3bfQneBO+QukwA2hCiHfrC/J2umqxm6/9zv97/zNvdXYkGrxg3ozVwm5/VJCW36M99Xb9OuXy/Sv9/n/yQWbFvzWjC6ke/K/uB9DZszLnTvZV/QOX7b+hzQzV0QC5bV+mKhPbs2AYKJG7cPuNcfhv2Xrn4nS1/aVuAOZGP+RfUb53Cynv9Y3MjNOfGTNXU9aNkIHc3pCJ38w5ev7Cuhk3/lu+LGLH1b/GTTfv6HV18v+vLCpj27Y0Erxs2gDPtDF6TLDYS/J2dXHdcdbEumr08hrf7c2dXaszSowDX5/2JtzX2gT8HsOAbXVoR3sqTLB4W27cS91lkI3IGsNEPUw5/s16yWtsw9MRasa62gxY0PTQcvq59bFu6fzbkl3TfnVv46bEHzehFe2NTV64WZzpM3Lsyhf6rrurYk6mNIa1B1baE9m6Fcr5X3HWxO2Afm99T3gT4EsyPuMdcWlg9q3mt1vW0F7kAlpxHUZogymtUy9AucC/jWNW/I+tZ5C9ygTd7yuSUZoOnbUxHUjb1edDB0370zFqXwd2YywrWg+TTL/F1xYxZGYUxyfWJjQlseSF7G1sd+oNmP7Qj7wttetrIvmFjRbyGUO/S8fh/bbM+h55fHdbKE2KwmwdC+Zr+8620rcIeM5dz5CCfr2szlUu9nQTBR4YYsnTUTLvBdP4bMep2+6tySDtCcnt2SBQZZ2rHqetHBQdrb7o8FE9d8muXw77iR76s3v6zeluFc/dbPx42OSs87zvHtufaS1ftCtstODsD8i4vig/+g3p59myjD9qWhe1cnTKzHOX685dC9BxOcBO5A1pohaghRbvlM3ICG5qNsoQOf88AVa6uF7qVpBbQGWSan2aadPP6Tvx+T05xhNYsb+XTf++yPx4JNa7bl9XeWbXksbnSc8327mvtCtexkR/YFbb15V/31enua5Zynah/oQTDL5lSTYcZMcOpa2wrcgUrOI6jNEHX/h4ffITNivnXNG7JwcX/LJ+NGx7zg6bEohb8309Uc0Av7yqEPx40J+cnnxYKJCG3aPP6P3hs3Zqm80WC6qpu9jjz5cPijsWBLltty5M/70Q/Ul2tfX/cFxlvVnjMYHN2q9Fpi+aitq/aBHgSzbE3XJ8MI3AFK4WKchih96pAxfc395caPdXN/ufa3Y8HMNAf0bvrMZPeVV743FqWwn9K+5vF/7R1lm94WN8jOuJu9aRO8tmPcAErXmOk8HV3bFxZOxaLk2r55fTi2maxwrf573xv3gVJXQ3fn+M0LbfvmH6q3bVdWLBC4Q8ac0OuWQ5RGh2woI+Dau13N0G00SGPGBE1r7Sv016o2/Vo32vRte2LBVIWbvVuuXNkfptF3cE2fjGoA5bHTbUu6qTmYZl/otz63p0HVdvzrV9f7biGY1R8fhgPPLY/x5GmWrqxYIHCHjLl4rxZClNAh+5nvq1+M3/KpuNFjaXuH/0+2bzl0SwZpOjVjovz7VJIbDGZj3L4ykQEabT41U2vTs0j/e5/w8tSZue6Zq2/k+xLmUHdmb3fbcuHhWJT05SYv3BMcvry+L9z86bgxC67t2xLa8/W7nadzFs6bfV1miLNLr92z6penBO6QMbOj1vbzP1w/Yd/40f5fjLX3ZFQdt8asGR14xlm1r5QdwbCvTMQ58ZOJWqtNZ3X8G0ifrbA/NIPaSfUdLDExWdNsy035i/jJ1By8rL4vHPhIuS9M+2Wq5bWFdrzjR4vi5ivqx7Y+e36qYzqdMDHfjWPMtX17lq/dHemXC9whY07o62vebHXpYrwVaXvTvhC6NV+Q+ZEZ/szTjoWXLXVLc4Cmrceaa23+xFgwFbMcdDOY2i1j+w4znmHF1qzVlp2QnG+YvFX7whRfpqo/1779l5bX7WSWc7hmz/TJhTFc2ycrHNNV3+1/WtkP+nyfz4rltp1RvzwlcAdYR3XCTl+0U3IxZi3NF2S+9F8sFi9/d9yAROgIHr2q3hG87QtxowVmOk9faNO3vWz2nXtmbzmcG/Ud4gyrVpX/zorgdaJW9QNnPfli1O5MXRf2hdDPpD1p6B6eXDj04bhBNs78k/pSsm1NgmH2qnut5L58Fv1ygTvABoQT9sFL6xfjq389bvSNm/OJWg5aotvvm/2MOOFrN+29uL6v7L19sZj/aNzYArOhZu/aS1Z37v/sv8eNCVn4k1iUwvmHbqjCucYMKzfy/dWFtkz/e297QSyYumpfmNGLdZ0/2peG7jd9ZrHY+4G40SGu7ZMVlpI99Lx6323mx5r79VY078tD2175rrgxBQJ3wAl9gw5fUT9h/9rJpSBV55em5sW9mgU15X1lx6OxoNOa+8rhTy0WP/neuLFJr7okFsxUs00ff8ticd1vxY1J+Hr8pJPGzbC66Xfixhal15LP/ngsmLjQlje9uN6Ws1qG4hMPxIKZCC/WveXK+r7w1s/GjZYZTJ+8NHS/7UTZZ/+FuDFDlgKdrvkXl8d0Y23/Wz8fN6bJU0yta/bLF+6f3mQ4gTvAJiyfsEeDFOVFMVyQe8EFfKrCvtJ89DjsK9MK3ffeHYtS+LvQXc2O4K/+4dY6gj+ezMrS5rPVbNO3/d4UOvcGzzuruT8cuqu9/eGeP4oFU3Hj8+ptWb1A8+fixhR5cm32rntmfV+4/kOTOc9759Z0pG1Z/OkUrtl0znWX1veDN91pPxiKZj+smgw3P/lsROAOORPAbkk4YY97tPiWz8SNrtsRP5mK5r4yzdCd/hjbEdxqJ1/w2gmttul6XMt7Ya39wfWgf1a15Z9NJ5Qx07l7pnaeZ+KW2zKZKNOJZcD06aYq7Afj3tUw7f3AC5Lbt6ptS5NuW4E7wBY1HxPf/+HudrLTC8nc+bFgasK+8qaLVvaVELpPbf04HfXeGHuzt5lArvzzdMtUb+DPi5901rj9YStPyQleZ2+tUGZawn+fblhrX2j9PD/69zMxVVuGiTJPWvlZh3P0pJYLWpc+3UzNYsLUpP/9LAlt+6qnT6dtBe4A27B88zwyyTCFXnvrK+r7Slg/7ucmuZ/oqPfS8s1eI5A79oWlzY348e+OBZ2wqk1LbXXu03/H3LfHgk4btz9stt9giYnu2G5bboY1nbtt3Hm+lTWg9eem7swb6n32sFzQTNbzZqbCMT2/p3FM3xs3JsyyYZP13h8rikOX1dt2EtdugTtkqnaT7pGlbVkO3ScQpkyCC/jsLO8r0TXlfjLxpyKeED/pldDJf106++L29Z+KSM83f/zNWNApoU3nnjq564Rze7+E/SG9HoT9Yf6jcYNeCW15ZK7Rlh+LG2SleVyHNaD/8fvjBr3S7LOHtrz+9rgxRe7TZ+vQ8xv7wR2Tu3fz9Np0zV8+ph/W8rVb4A7QgtGMteYo+KvfEzcganbgq6ciNrNsyAbUBtT+cizonV/7sXpAG56K2Mh+Injtrjtfu7pzv51j381ZvzWvB4c/tcEb+dGM12Sgn9m6/lmNtvzkBEIZ7d4LzeP6l/8g9vM28aTaOEdfFAumprq/C8sFRW/9wuTC1rXo083eWvdubfP02vSt6oeV1+4b7ogbLRC4A7SoOQr+vi/FTnaLYSr9t3xxH900lx237QZva9FR77cQ0DZnRR+4M24kBK/90ezchzY99OG4sUluzvqvuT9MYhCW6VirLclP2Bea67qHJ9U2Kz0POMfPThq6T+O4dv7vnuXze3JMT/O9HUxO89p95N7FYu+/jRvbJHAHBHItG3fDFQKVWUrDOB32bgjtEJ6KSGeqTSp0p9+as6Jv/vzqm72Fr8Si5BjvvuZ14qbPCOZytrw/PDbuE7HfMO56kH6tuobQKdW1fQIvU03b3RIT/VEdo6PjurSdfUH/cLam8mLcyCSKblq+d/uO+jG93adXVknuDZmOZr/8tn+/1C/f7jEucAeYgFU3XKWJXJA3yIu2uit03Ca5rjPD0OwIVjd7aUD7aPzUSe+Ntdp0U8d/+T0V7d57Vb9h7+auB64V3dUcUA99wPXew7EZJsr0Sziub3hmfV/YKMFrt4Tj+uCzN36O3ipPr3XbmZ9tLCN7+2JxtI2XqY76dMzEuH75do9xgTvABIWOWXriDhfkNkZLGZZx6zrf8rm4sQX7PhuLko76cCx3BEchTghoRzOsdNJ7aVybVp37GQ3OMnvjlpFK+wwCuP5o9gHDezhuuidukJW3XFkUt1yxsi8sX7vPQvDaPYdfOqbP/pm4QTaay8hee8diMX88btBb4TzbnDS5ndBd4A4wYcuBykgMVKZqFMaZBdlZzf1k/8Ji8fJ3x43N+lr8ZHCqjmBj5mR6Pjn8nFjQG6M2rYWst5+9c5/+82OXx4JBGDcIu/cDS/XCf136DMK+Q7c1r+2H7t7aTHcDLf133aWrj+uffG/coFdW9dk/vFgc/njcaJP7tk5r7geHP9F4+nQT0j6dZcNmL/TLb04GScP5ev7uuLEJAnfIlDW9p2v5gpx0nDY6u4V8NDtut9+3zScidNQHK3QEX/m01e377TtjQe+cbWbzes7o0Q9O83pw24kY1H5zadv5vT+abRlmum82lDHTeRia+8Kv/uEG9wXHe+c023L+41sPW1fx1GJvhP2g7ZfqWjasG/ZfWm/bw/dsfsBc9xwyZU3v6asuyPuK4i0vWTlxh0Dlmt+MGxNixLxfmh345SUmNhO666hn4f2vKYojL032lVLYf+ivcTObb11jXVAzXoeveT0IQa3zez+tFcpYPio/4/p51b4wrp/neO+0tY5r8lPtB8mLz+0Hw5Ee49WA+bG4sQECd4Apu+E59Y72z/3+Oh1tsrTcgU9mNG06dA/Mdh6865+9Mis6nR1NfzXDmDfdsVjs/2DcSPzt5PgO38MwrQrnoqMvigW90gxlwvJRm2Km8yCs6ueFfaHRz0trE2a6rdmWm3kxbpN276+jLyx/a4TuG713M4mi22r9sD/f+ICKwB1gBlbdQI/paE+CR9T6JTwRcfDSlf0k7CNne5St1lH/zlgwaGFWdLjZC58MQ/Maccvvru7cv+3+WDB4y/tDEraGr9FPZ/YWxU89Y6UtN7TEYNlPZHhCP685uWIc/ffua7bldkL3Ee3eL9VAWnl+rw2qrnFMr8f1vXuW+2GbfIpB4A65SzoGTFd1UR4zi3krL9NiuA5fUQ/ewqNsGx2Y0VGH/lru3I80Z0uNAjjX8SxUfYZ9S/2Gqu9Ar/3iq4riquQ9HNOYdEE3heM6fUJtNABjxmv/hLacf0G9LclPLXQvbWQ/sNxv91X9sMaAytnaVuAOuRrdqDNzoXP2j/7WykU5BKptvul+312xKIULBf3TDN7WG5hxgwbDsXzsj0L18totmINh+OBrVl/bv/jVuJFIj3dLCQ3TuPd3eFFuPx16Qb0tqwGUTbyrQT9+GEIwe2PylPJoII3+q0L3x9Xbdi0Cd4AOePuP1Dtnrb7pfsQsyF5rhu7VS1vG7CMLD8ei5AYN+i8cx81H1UMYMyKAg/5qXtv/1s8vFn//vXGDrIR94daXJX11TzH1VvO4Du9qOHw8bpCNm64oiluurPfd3vr5uNHkeO+VM9cUxaHnrbTVWqG7wB2gI5qds+oxpXT5gK3yNMNgrLWP1PxF/AQGJYTu11/iRgyGpnlt/zd/WL+2m/Gaj32XNPp5JYOq/dQ8ruc/sVi88X1xYx2ebBiW655Z3w+uv3OxeNOYF+HTP/MvLoojyYDKuKcYBO6QOW8/75blztkklg9YuR7QY+P2kdrAzGiAxQwJGJwjL6uv9Ru4IYf+a4Zz6YC6AC4vtX2h7Mtp8/4KbZe+c+OXvrhY/Mi74wbZaJ7fb/3dxeLlyX6Q3ufLZvrl+saASvoEaiBwhwy1Et4yMVXnbF9RvLLxMq1b13oEbR21C/i3xYLeG+0jzYGZ2rrufzl+AoMS1vodhe5engnDsRzONQbUlxlIz8ZoX6j6evReeq3+jfvGPJ2aMnFmkJbP79Hta+wHoY9HvzTbNp3pLnAH6Kj3v6Yo/sWrV07eb7rzLB20s9izOxYMRnNd57Cu+8jR58UCGJxwQ5Z27oHhaA6oLwdwQG9V1+y1BtPIRq3vFveDdNkwEyP7K23bMBHu5k8J3CF7Qthu+wffO/4R441ejK37OXzhxvzNP5TsIwBArzUH1AOznaHfmoNpzTWfa08mW1pksJqDL+mEqTBbmv5KQ/cDH10UuAN0XbjwVqF7cmHe6Lrul/71WDBoB55bFEfmVi7wYV/RYQOA/grh3PI7GxrhO9BPzcG05prPI5YWGbZxg6rO88OQTpYUuEOGzHrun2ptsDEdtNqa3WMc+mwsSgLYYbv+WSsDM9W+AgD02mj5KNd1GI5wPM/vWbmnG81033dX/EJpo08z01/Ne/ujL4oFvVblNnGmu8AdMmQZmf4KF+Zbrli5MIdH0G64I26QveWBGQAAoJMOPb8+E7aa6X7a0iK5qe7bnrSreppJmw9LCN0F7pChdIa7E3v/XHdpvYN25N4NvHjHI2oAAACdEO7D03u6Ze7bsnLmDZYQGiqBO2Ro4VQs6K1VHbS1XqaazJQAAACgG8aF7pYWgWEQuAP0VOigNd9yvtGXqQIAADBbtdC9vK8L20D/CdwBeq75wpVR6J4G73MXxAIAAIDOGE2k8i4mGA6BO+TM+nCDETpnhy6rh+7pWv1elAsAAAAweQJ3yJF1vQdp/vL6GoAL92tnAAAAgGkSuAMMyLgX7wTWAgQAAACYPIE7wMCsCt0tHQQAAAAwFQJ3yJgXaQ7X8ot3vHwHAAAAYGoE7pCZYydiAQAAAAC0SuAOAAAAAAAtELhDxvbsjgUAAAAAsG0CdwAAAAAAaIHAHTJz/GQsAAAAAIBWCdwhM5aRAQAAAIDJELhDZsxwBwAAAIDJELhDZhZOxaK096JYAAAAAADbJnAHAAAAAIAWCNwBAAAAAKAFAnfI1c5dsQAAAAAA2iBwh9ycXowFAAAAANAmgTsAAAAAALRA4A4AAAAAAC0QuEOm5i6IBQAAAADQCoE7ZOTYiVgAAAAAAK0TuAMAAAAAQAsE7pCpPbtjAQAAAAC0QuAOAAAAAAAtELhDRo6fjAUAAAAA0DqBO2TkztfGAgAAAABoncAdMnLlu2JR2ntRLAAAAACAVgjcISMLp2IBAAAAALRO4A4AAAAAAC0QuHNWO+YXq18AAAAAAKxN4M66jp2IRUnoPiA7d8UCAAAAAGiLwJ11HT8Zi00IIf1oVryQvmNOaw8AAAAAmBSBO+tqvmTzynfFYhO28j0AAAAAAH0jcKd1W5kVDwAAAADQdwJ31tdYgmTh/s0vSdKcJc9spOvxz10QCwAAAACgNQJ3Ni0NbjfEuuEAAAAAQAYE7mzI3FN3xaoo9n1g/QDdjHYAAAAAIEcCd9bUnMl+9BUroftbPxsLemnP7lgAAAAAAK0RuLMhIaDde1HcKF3/oc0tE3Plu2IBAAAAADBQAnc2JV1aZse8tdkBAAAAAEYE7mzIaHb7na8tigPP2mDovnPlz9Et6dMKAAAAAEA7BO6s6fjJWJTS9dzfPFef6f7yd8di5PTqEN6LVGcvbU8AAAAAoH0Cd7YkzHQfuf2+xeKf/EbcaBrNch8TwjNdBj0AAAAAYLIE7mzIuCVIjr5iZZb7//EfFqvlZXa8PX6hNHfB0i8AAAAAgBwI3FnT2WZEhxD+zPyu+lrtf7wyk33P7lhE6bI0zJC19QEAAABgIgTubNuZfXFN9zTILevmrHgv6gQAAAAAhkzgTivCmu4heA/LzIRZ76EO0lnuV74rFsyGdfQBAAAAYKIE7pzdJpYgMasdAAAAAMiVwJ21tTwj+mxrwgMAAAAA9JnAnckbzZC3pMnMpC+snbsgFgAAAABAqwTuTFwa8O44GgsAAAAAgIERuHNWrc6IPr3o5akAAAAAwCAJ3BkrXYJku+58bSyihfsXW/33szl7dscCAAAAAGiVwJ2pODO/qzj6iriWe2nfXbEAAAAAABgIgTtTs/eioph76soLVHfMe4kqAAAAADAcAnfOqs0lSKrlZR63MtP95e+OBRP16DdjAQAAAABMjMCdqTtzTSxKt9+3WOw42u6a8az2iftjUQpPGgAAAAAA7RO4MxPVeu47V5aX2fcBL1KdpIVTsQAAAAAAJkbgzljHT8ZiQsIs6zP7yuKxyYtUhe4AAAAAQI8J3JmpM3vL34Tu0zN6qgAAAAAAaJ3AnbHSJUgmveZ3CN1f9/QkdL8rFgAAAAAAPSJwpxN+7cfK35I13cOLVGlR+TMFAAAAACZL4E5nVGu6C90BAAAAgJ4SuLO+Ka/5vSp0n7eme5vmLogFAAAAANA6gTudUwvdS+FFqmydAQsAAAAAmA6BO+PNeM3vKnR/7ErobqY7AAAAANB1Anc668ze8jcz3Vu1Z3csAAAAAIDWCdzptDDTff8l9ZnuAAAAAABdJHBnXV14yebNLyuKIy+1vAwAAAAA0G0Cd1bpYph9/bOL4ugrLC+zJY/Gz9Lei2IBAAAAALRO4E5vhLA4Dd3DTPfDn4gbrGnf3bEAAAAAACZK4E6vNEP3+eOLxY6jcQMAAAAAYIYE7qxrz+5YdEgzdC9OC90BAAAAgNkTuNNLIXQ/M7+rKHbG4F3ofnajnxUAAAAAMBECd3rtzL7yN6H7+sqfCwAAAAAweQJ3Vjl+MhY9MS50P3ZiaRMAAAAAYFoE7qwrLN3SB83Qfd8HFoXuAAAAAMBUCdxZZeFULHqmFrqXQujOirkLYgEAAAAATITAnUEJofvB56yE7jvm857pbpY/AAAAAEyPwJ3BOfySopjfU5/p/r+9P24AAAAAAEyIwJ21Jcuz9M2h5xfF0Ves/P1/8Q+WXqaasz27YwEAAAAATITAncEKL3w9M58MGpwWugMAAAAAkyNwZ7XTw3rZaDXTfTRbP7PQ/fjJWAAAAAAAEydwZ/Cqme77yiIN3eeHNaiwFsvIAAAAAMD0CNzJRi10L4XQ/diJuDFQ6Qz3MPAAAAAAAEyOwJ01zV0QiwEJofuhv7MSuu/7wGJx9N64MUALp2IBAAAAAEycwJ2aoc/4DuZfGNd1j669w8tUAQAAAIDtE7iTpbC8Shq65/YyVQAAAACgfcuB+0MPPVS84Q1vKHbs2FEcOHCgeOSRR+I/We3o0aPF/Px83FraDt8XfqVfp9+G/sLN5dA9fZnqUEP3ZO16AAAAAGAylgP3d7zjHcWFF15YPPzww9X2wsJC9dkUAvVrr702bhXF3XffXTz44IPFb//2b1efX/nKV4p3vvOd8Z9Ct4XQvfYy1RC6D+llquX/DwAAAAAwHVXgHma3h6D8/PPPL84777zi8Y9/fPHAAw9UfyAVZrI/5SlPKQ4dOhS/UhTf8z3fUzzucY+LW0VVP+lJT4pb9M3xk7HITC10L4WXqeawnj0AAAAA0J4dZ0ohcH/7299ezM3NFZdffnkVrH/1q18trrnmmiqAbxotGzP6DN9/6623VnWY/f7kJz+5qoOwzEwb3vjGN1YDAkzWI4/uKo5944ereu+5v1mc9y15zZBO//8r53ymuPmc348b/XPD//iHS8W33F/cfO7Hl2oA2ITQJwyTMQAA6B99OZi+bQfuYfmYe+65Z3mZmRC8X3bZZcXrXve6ajsE7uV/oqrpvivfVRQL9y+F7GF987DkSm7CzPYww32krz+H9P9j7qm7ijtfW5UAsClHjhwp9u/fH7cAAOgTfTmYvuU13L/2ta9Vy8qMnHvuuWPD9qYvf/nL1RIyYVZ7+BXqccvR0D85hu3B8stUoxBa/9HpuAEAAAAAsIYqcB8F5SE8f+SRR6rZ7WGt9o0Iy7yEoD7Mkg/f+41vfKPYuXNn/Kf0zcKpWGSuGbp/99HFYv5jcaOH9uyOBQAAAAAwMcsz3K+++uriwQcfLJ7whCdUs9tHS8KMlo1ZS/hzF154YfVr9L379oU3UEK/NUP3w59cLHYcjRsAAAAAAA3VGu6xnghruPdLFSifXlr3+8z8Stics+aa7kEf1nVP/959XYcegNmz7icAQH/py8H0Lc9wh5qdwvaR5Znuyc8kBNkh0O6y4ydjURK2AwAAAMDkCdypi7PbqQuB9Zl9RTH/gnroftM9caODrMcPAAAAANMlcIdNOPSC+rruh+5eLK7+9bgBAAAAAGRN4A6btLzETPRrJzv6MtXR0wqWBwIAAACAqRC4M9bcBbFgrGqJmfSlsqeXQveur+sOAAAAAEyOwJ1lwuLNq0L30Qzy04udeZlq+ncweAIAAAAA0yFwh20KL1NNl23pSug+smd3LAAAAACAiRK4QwtC6D731O6G7gAAAADA5AncGcus6M2787XdCd3/ry/GAgAAAACYGoE7y8KLQNmeroTuX/xKLEraFQAAAACmQ+DOsivfFQu2pUsz3dO15QEAAACAyRK4wwTMPHQ/vRgLAAAAAGBaBO6MZRmS7Quh+43Pmn7onv435i6IBQAAAAAwcQJ3li2cigWtuWmuQ8vLAAAAAAATJXCHCRu3vMy01svfszsWAAAAAMDECdxhCkLofvQVK6H7wv3TC90BAAAAgOkQuLPazpVgmPaEdfGnEbrvuysWJWvxAwAAAMD0CNxhisaF7m/5VNwAAAAAAHpN4M6K04uxYJKaofuNH10sXv+euNEmTyoAAAAAwFQJ3GEGmqH7O7+0WOw4Gje2y8AJAAAAAMyEwB1mpBm6h6B8u6H7sROxKM1dEAsAAAAAYCoE7lQEtbOxHLqPln9pIXQf2bM7FgAAAADAVAjcYcZC6H5mX1m0ELrvuysWpfDvBQAAAACmR+AOHdFK6D5av90LUwEAAABg6gTurGIpktnZTuieLgt09EWxAAAAAACmRuAOHTMudE/D9LWky8kAAAAAANMncIcOaobu+z6wuKHQvVJ+n/XbAQAAAGD6BO5Ujp+MBZ1RC91LZw3dR+u371j6AAAAAACmS+AOHRZC99c9/eyhe/q1ufNjAQAAAABMlcCdysKpWJQsR9Itv/ZjRTF/WT10b0rbzEtvAQAAAGA2BO7QA4cuL4prf2AldN8xXw/dw4tVRwyYAAAAAMBsCNyhJ9728qK46mlrh+6VZM13AAAAAGC6BO7UCWw77YOvKYq5pyah+2hmuxemAgAAAMDMCdyhZ+58bfnbaGDk9GJtOZmjL4wFAAAAADB1AneWjGZI0wtn9pW/JaE7AAAAADB7AnfoqVroHpS1F6YCAAAAwOwI3KHH0tC9qgEAAACAmRG4UzN3QSzojRC0n5lPZroDAAAAADMhcKc4diIWAAAAAABsmcAdAAAAAABaIHCnZs/uWAAAAAAAsCkCdwAAAAAAaIHAnZq9F8UCAAAAAIBNEbgDAAAAAEALBO4Ux0/GonTsRCwAAAAAANgUgTs1lpQBAAAAANgagTvFwqlYAAAAAACwZQJ3AAAAAABogcAdAAAAAABaIHBnxc5dsQAAAAAAYLME7hTF6cVYAAAAAACwVQJ3AAAAAABogcAdAAAAAABaIHBn2dwFsQAAAAAAYNME7pk7diIWAAAAAABsi8AdAAAAAABaIHBn2Z7dsQAAAAAAYNME7gAAAAAA0AKBOwAAAAAAtEDgDgAAAAAALRC4Z+74yVgAAAAAALAtAneW7b0oFgAAAAAAbJrAPXMLp2IBAAAAAMC2CNwBAAAAAKAFAncAAAAAAGiBwJ0lO3fFAgAAAACArRC45+70YiwAAAAAANgOgTsAAAAAALRA4A4AAAAAAC0QuFOZuyAWAAAAAABsicA9Y8dOxAIAAAAAgG0TuAMAAAAAQAsE7lT27I4FAAAAAABbInAHAAAAAIAWCNwBAAAAAKAFAncAAAAAAGiBwD1jx0/GAgAAAACAbRO4Z2zhVCxKey+KBQAAAAAAWyJwBwAAAACAFgjcAQAAAACgBQJ3imLnrlgAAAAAALBVAncAAAAAAGiBwD1npxdjAQAAAADAdgncAQAAAACgBQJ3AAAAAABogcCdYu6CWAAAAAAAsGUC90wdOxELAAAAAABaIXAHAAAAAIAWCNwp9uyOBQAAAAAAWyZwBwAAAACAFgjcKfZeFAsAAAAAALZM4I4XqAIAAAAAtEDgnqnjJ2NRMsMdAAAAAGD7BO6ZWjgVCwAAAAAAWiFwBwAAAACAFgjcAQAAAACgBQL33O3cFQsAAAAAALZD4A4AAAAAAC0QuOfq9GIsAAAAAABog8A9dzviJwAAAAAA2yJwz9zc+bEAAAAAAGBbBO4ZOnYiFgAAAAAAtEbgDgAAAAAALRC4AwAAAABACwTumduzOxYAAAAAAGyLwD1Dx0/GAgAAAACA1gjcM5TOat97USwAAAAAANgWgXuG0hnux07EAgAAAACAbRG4Z84MdwAAAACAdgjcM7RwKhYAAAAAALRG4A4AAAAAAC0QuOds565YAAAAAACwXQJ3AAAAAABogcA9R6cXYwEAAAAAQFsE7gAAAAAA0AKBOwAAAAAAtEDgnpljJ2JRmrsgFgAAAAAAbJvAHQAAAAAAWiBwBwAAAACAFgjcM7ZndywAAAAAANg2gTsAAAAAALRA4A4AAAAAAC0QuGfm+MlYAAAAAADQKoF7xvZeFAsAAAAAALZN4J6ZhVOxAAAAAACgVQJ3AAAAAABogcAdAAAAAABaIHDP1c5dsQAAAAAAoA0C99ycXowFAAAAAABtErgDAAAAAEALBO4AAAAAANACgXum5i6IBQAAAAAArRC4Z+TYiVgAAAAAANA6gTsAAAAAALRA4J6pPbtjAQAAAABAKwTuAAAAAADQAoF7pvZeFAsAAAAAAFohcM+UF6gCAAAAALRL4J6R4ydjUTLDHQAAAACgXQL3jCycigUAAAAAAK0TuAMAAAAAQAsE7gAAAAAA0AKBe4527ooFAAAAAABtEbjn5PRiLAAAAAAAaJvAHQAAAAAAWiBwBwAAAACAFgjcMzR3QSwAAAAAAGiNwD0Tx07EAgAAAACAiRC4AwAAAABACwTuGdqzOxYAAAAAALRG4A4AAAAAAC1YDtwfeuih4g1veEOxY8eO4sCBA8UjjzwS/8lqR48eLebn55fr8D3pr9E/AwAAAACAXCwH7u94xzuKCy+8sHj44Yer7YWFheqzKYTp1157bdwqin379hVnzpypfj344IPFDTfcUFx99dXxn9IVx0/GAgAAAACAiagC9zC7/Stf+Upx/vnnF+edd17x+Mc/vnjggQeqP5AKs9mf8pSnFIcOHYpfqQuhffjeJz/5yfErdNHei2IBAAAAAEBrdpwphcD97W9/ezE3N1dcfvnlVbD+1a9+tbjmmmuqAL5ptGRMunTM3XffXdxzzz3FT//0T9e+Jywx04Y3vvGN1YAAW3PD168oijPfVdU3f+s/rz4BAM4m9AnDhAoAAPpHXw6mr7XAPXxPEJaYSYXAPSw3w2ztCM1zerGqz8zvqj4BAM7myJEjxf79++MWAAB9oi8H07e8hvvXvva1almZkXPPPXds2D5OeMHq6dOni4svvjh+hc7aKWwHAAAAAJiEKnAPa64/6UlPKr785S9X4XmY3R7Wat+oEydOVJ8XXWRxcAAAAAAA8rQ8w/3qq68uHnzwweIJT3hCNbv9da97XfX1sGzMO9/5zqpey2hm/EZnxDMDcTkZAAAAAAAmo1rDPdYTYQ33btgxHwP3x+4qzuxdKgEAzsa6nwAA/aUvB9O3PMOdTBj7AAAAAACYCIF7Bo4tLbFfmbsgFgAAAAAAtErgDgAAAAAALRC4AwAAAABACwTumdmzOxYAAAAAALRK4J6B4ydjAQAAAADAxAjcM5DOat97USwAAAAAAGiVwD0D6Qz3YydiAQAAAABAqwTuGVg4FYuSGe4AAAAAAJMhcAcAAAAAgBYI3AEAAAAAoAUC95zs3BULAAAAAADaJnDPwenFWAAAAAAAMCkCdwAAAAAAaIHAPSfnxE8AAAAAAFoncM/I3BNjAQAAAABA6wTuA3fsRCwAAAAAAJgogTsAAAAAALRA4J6RPbtjAQAAAABA6wTuAAAAAADQAoE7AAAAAAC0QOCekb0XxQIAAAAAgNYJ3Afu+MlYAAAAAAAwUQL3gVs4FQsAAAAAACZK4A4AAAAAAC0QuOdi565YAAAAAAAwCQJ3AAAAAABogcB96E4vxgIAAAAAgEkSuAMAAAAAQAsE7pmYuyAWAAAAAABMhMB9wI6diAUAAAAAABMncAcAAAAAgBYI3DOxZ3csAAAAAACYCIE7AAAAAAC0QOAOAAAAAAAtELgDAAAAAEALBO4DdvxkLEp7L4oFAAAAAAATIXAfsIVTsQAAAAAAYOIE7gAAAAAA0AKBew527ooFAAAAAACTInAHAAAAAIAWCNyH7PRiLAAAAAAAmDSBew52xE8AAAAAACZG4J6BufNjAQAAAADAxAjcB+rYiVgAAAAAADAVAncAAAAAAGiBwD0De3bHAgAAAACAiRG4AwAAAABACwTuAAAAAADQAoH7QO14NBYAAAAAAEyFwH2g7r4vFqW9F8UCAAAAAICJEbgP1MKpWAAAAAAAMBUCdwAAAAAAaIHAfeh27ooFAAAAAACTJHAHAAAAAIAWCNyH6vRiLAAAAAAAmAaBOwAAAAAAtEDgPnBzF8QCAAAAAICJErgP0LETsQAAAAAAYGoE7gAAAAAA0AKB+8Dt2R0LAAAAAAAmSuAOAAAAAADbVhT/PylLOI11NYu9AAAAAElFTkSuQmCC;" vertex="1" parent="1">
          <mxGeometry x="80" y="120" width="1500" height="501" as="geometry" />
        </mxCell>
        <mxCell id="Nm489pgh-CyMTp9Xrosg-4" value="0.19" style="text;html=1;align=center;verticalAlign=middle;resizable=0;points=[];autosize=1;strokeColor=none;fillColor=none;fontSize=17;fontColor=#121212;labelBorderColor=none;labelBackgroundColor=#FFFFFF;" vertex="1" parent="1">
          <mxGeometry x="55" y="219" width="60" height="30" as="geometry" />
        </mxCell>
        <mxCell id="Nm489pgh-CyMTp9Xrosg-5" value="0.18" style="text;html=1;align=center;verticalAlign=middle;resizable=0;points=[];autosize=1;strokeColor=none;fillColor=none;fontSize=17;fontColor=#121212;labelBorderColor=none;labelBackgroundColor=#FFFFFF;" vertex="1" parent="1">
          <mxGeometry x="55" y="379" width="60" height="30" as="geometry" />
        </mxCell>
        <mxCell id="Nm489pgh-CyMTp9Xrosg-6" value="0.17" style="text;html=1;align=center;verticalAlign=middle;resizable=0;points=[];autosize=1;strokeColor=none;fillColor=none;fontSize=17;fontColor=#121212;labelBorderColor=none;labelBackgroundColor=#FFFFFF;" vertex="1" parent="1">
          <mxGeometry x="55" y="539" width="60" height="30" as="geometry" />
        </mxCell>
        <mxCell id="Nm489pgh-CyMTp9Xrosg-9" value="" style="rounded=0;whiteSpace=wrap;html=1;fillColor=#FFFFFF;strokeColor=none;" vertex="1" parent="1">
          <mxGeometry x="671" y="595" width="120" height="60" as="geometry" />
        </mxCell>
        <mxCell id="Nm489pgh-CyMTp9Xrosg-7" value="10 s" style="text;html=1;align=center;verticalAlign=middle;resizable=0;points=[];autosize=1;strokeColor=none;fillColor=none;fontSize=17;fontColor=#121212;labelBorderColor=none;labelBackgroundColor=#FFFFFF;" vertex="1" parent="1">
          <mxGeometry x="701" y="605" width="60" height="30" as="geometry" />
        </mxCell>
        <mxCell id="Nm489pgh-CyMTp9Xrosg-10" value="" style="rounded=0;whiteSpace=wrap;html=1;fillColor=#FFFFFF;strokeColor=none;" vertex="1" parent="1">
          <mxGeometry x="1300" y="595" width="120" height="60" as="geometry" />
        </mxCell>
        <mxCell id="Nm489pgh-CyMTp9Xrosg-11" value="20 s" style="text;html=1;align=center;verticalAlign=middle;resizable=0;points=[];autosize=1;strokeColor=none;fillColor=none;fontSize=17;fontColor=#121212;labelBorderColor=none;labelBackgroundColor=#FFFFFF;" vertex="1" parent="1">
          <mxGeometry x="1331" y="605" width="60" height="30" as="geometry" />
        </mxCell>
      </root>
    </mxGraphModel>
  </diagram>
</mxfile>
